<?xml version="1.0" encoding="UTF-8"?>
<svg xmlns="http://www.w3.org/2000/svg"
     xmlns:xlink="http://www.w3.org/1999/xlink"
     version="1.2"
     width="141.42mm" height="100mm" viewBox="0 0 141.42 100"
     stroke="none"
     fill="#000000"
     stroke-width="0.3"
     font-size="3.88"
>
<defs>
  <marker id="arrow" markerWidth="15" markerHeight="7" refX="5" refY="3.5" orient="auto" markerUnits="strokeWidth">
    <path d="M0,0 L15,3.5 L0,7 z" stroke="context-stroke" fill="context-stroke"/>
  </marker>
</defs>
<g stroke-width="1" id="img-281dc159-1">
  <g transform="translate(70.71,50)">
    <path d="M-50,-50 L 50 -50 50 50 -50 50 z" class="primitive"/>
  </g>
</g>
<g stroke="#808080" stroke-width="0.5" id="img-281dc159-2">
  <g fill="#FFFFFF" id="img-281dc159-3">
    <g transform="translate(95.71,10)">
      <path d="M-8.33,-10 L 8.33 -10 8.33 10 -8.33 10 z" class="primitive"/>
    </g>
  </g>
  <g fill="#FFFFFF" id="img-281dc159-4">
    <g transform="translate(95.71,30)">
      <path d="M-8.33,-10 L 8.33 -10 8.33 10 -8.33 10 z" class="primitive"/>
    </g>
  </g>
  <g fill="#FFFFFF" id="img-281dc159-5">
    <g transform="translate(95.71,50)">
      <path d="M-8.33,-10 L 8.33 -10 8.33 10 -8.33 10 z" class="primitive"/>
    </g>
  </g>
  <g fill="#FFFFFF" id="img-281dc159-6">
    <g transform="translate(95.71,70)">
      <path d="M-8.33,-10 L 8.33 -10 8.33 10 -8.33 10 z" class="primitive"/>
    </g>
  </g>
  <g fill="#FFFFFF" id="img-281dc159-7">
    <g transform="translate(95.71,90)">
      <path d="M-8.33,-10 L 8.33 -10 8.33 10 -8.33 10 z" class="primitive"/>
    </g>
  </g>
  <g fill="#FFFFFF" id="img-281dc159-8">
    <g transform="translate(79.04,10)">
      <path d="M-8.33,-10 L 8.33 -10 8.33 10 -8.33 10 z" class="primitive"/>
    </g>
  </g>
  <g fill="#FFFFFF" id="img-281dc159-9">
    <g transform="translate(79.04,30)">
      <path d="M-8.33,-10 L 8.33 -10 8.33 10 -8.33 10 z" class="primitive"/>
    </g>
  </g>
  <g fill="#FFFFFF" id="img-281dc159-10">
    <g transform="translate(79.04,50)">
      <path d="M-8.33,-10 L 8.33 -10 8.33 10 -8.33 10 z" class="primitive"/>
    </g>
  </g>
  <g fill="#FFFFFF" id="img-281dc159-11">
    <g transform="translate(79.04,70)">
      <path d="M-8.33,-10 L 8.33 -10 8.33 10 -8.33 10 z" class="primitive"/>
    </g>
  </g>
  <g fill="#FFFFFF" id="img-281dc159-12">
    <g transform="translate(79.04,90)">
      <path d="M-8.33,-10 L 8.33 -10 8.33 10 -8.33 10 z" class="primitive"/>
    </g>
  </g>
  <g fill="#FFFFFF" id="img-281dc159-13">
    <g transform="translate(62.38,10)">
      <path d="M-8.33,-10 L 8.33 -10 8.33 10 -8.33 10 z" class="primitive"/>
    </g>
  </g>
  <g fill="#FFFFFF" id="img-281dc159-14">
    <g transform="translate(62.38,30)">
      <path d="M-8.33,-10 L 8.33 -10 8.33 10 -8.33 10 z" class="primitive"/>
    </g>
  </g>
  <g fill="#FFFFFF" id="img-281dc159-15">
    <g transform="translate(62.38,50)">
      <path d="M-8.33,-10 L 8.33 -10 8.33 10 -8.33 10 z" class="primitive"/>
    </g>
  </g>
  <g fill="#FFFFFF" id="img-281dc159-16">
    <g transform="translate(62.38,70)">
      <path d="M-8.33,-10 L 8.33 -10 8.33 10 -8.33 10 z" class="primitive"/>
    </g>
  </g>
  <g fill="#FFFFFF" id="img-281dc159-17">
    <g transform="translate(62.38,90)">
      <path d="M-8.33,-10 L 8.33 -10 8.33 10 -8.33 10 z" class="primitive"/>
    </g>
  </g>
  <g fill="#FFFFFF" id="img-281dc159-18">
    <g transform="translate(45.71,10)">
      <path d="M-8.33,-10 L 8.33 -10 8.33 10 -8.33 10 z" class="primitive"/>
    </g>
  </g>
  <g fill="#FFFFFF" id="img-281dc159-19">
    <g transform="translate(45.71,30)">
      <path d="M-8.33,-10 L 8.33 -10 8.33 10 -8.33 10 z" class="primitive"/>
    </g>
  </g>
  <g fill="#FFFFFF" id="img-281dc159-20">
    <g transform="translate(45.71,50)">
      <path d="M-8.33,-10 L 8.33 -10 8.33 10 -8.33 10 z" class="primitive"/>
    </g>
  </g>
  <g fill="#FFFFFF" id="img-281dc159-21">
    <g transform="translate(45.71,70)">
      <path d="M-8.33,-10 L 8.33 -10 8.33 10 -8.33 10 z" class="primitive"/>
    </g>
  </g>
  <g fill="#FFFFFF" id="img-281dc159-22">
    <g transform="translate(45.71,90)">
      <path d="M-8.33,-10 L 8.33 -10 8.33 10 -8.33 10 z" class="primitive"/>
    </g>
  </g>
  <g fill="#FFFFFF" id="img-281dc159-23">
    <g transform="translate(29.04,10)">
      <path d="M-8.33,-10 L 8.33 -10 8.33 10 -8.33 10 z" class="primitive"/>
    </g>
  </g>
  <g fill="#FFFFFF" id="img-281dc159-24">
    <g transform="translate(29.04,30)">
      <path d="M-8.33,-10 L 8.33 -10 8.33 10 -8.33 10 z" class="primitive"/>
    </g>
  </g>
  <g fill="#FFFFFF" id="img-281dc159-25">
    <g transform="translate(29.04,50)">
      <path d="M-8.33,-10 L 8.33 -10 8.33 10 -8.33 10 z" class="primitive"/>
    </g>
  </g>
  <g fill="#FFFFFF" id="img-281dc159-26">
    <g transform="translate(29.04,70)">
      <path d="M-8.33,-10 L 8.33 -10 8.33 10 -8.33 10 z" class="primitive"/>
    </g>
  </g>
  <g fill="#FFFFFF" id="img-281dc159-27">
    <g transform="translate(29.04,90)">
      <path d="M-8.33,-10 L 8.33 -10 8.33 10 -8.33 10 z" class="primitive"/>
    </g>
  </g>
</g>
<g fill="#808080" stroke="#000000" id="img-281dc159-28">
  <g transform="translate(79.04,29.29)">
    <path d="M-0,-4.29 L 4.33 -1.79 4.33 3.21 -0 5.71 -4.33 3.21 -4.33 -1.79 -0 -4.29 z" class="primitive"/>
  </g>
</g>
<g fill="#808080" stroke="#000000" id="img-281dc159-29">
  <g transform="translate(62.38,49.29)">
    <path d="M-0,-4.29 L 4.33 -1.79 4.33 3.21 -0 5.71 -4.33 3.21 -4.33 -1.79 -0 -4.29 z" class="primitive"/>
  </g>
</g>
<g fill="#808080" stroke="#000000" id="img-281dc159-30">
  <g transform="translate(29.04,89.29)">
    <path d="M0,-4.29 L 4.33 -1.79 4.33 3.21 0 5.71 -4.33 3.21 -4.33 -1.79 -0 -4.29 z" class="primitive"/>
  </g>
</g>
<g fill="#FF0000" id="img-281dc159-31">
  <g transform="translate(112.38,50)">
    <path d="M-8.33,-50 L 8.33 -50 8.33 50 -8.33 50 z" class="primitive"/>
  </g>
  <g font-size="7.06" fill="#000000" stroke="#000000" id="img-281dc159-32">
    <g transform="translate(119.32,50)">
      <g class="primitive">
        <text text-anchor="middle" dy="0.6em" transform="rotate(90,0, 0)">EXIT AREA</text>
      </g>
    </g>
  </g>
</g>
<g fill="#FFA500" id="img-281dc159-33">
  <g transform="translate(50.71,70)">
    <ellipse cx="0" cy="0" rx="1.67" ry="6" class="primitive"/>
  </g>
</g>
<g fill="#FFA500" id="img-281dc159-34">
  <g transform="translate(40.71,70)">
    <ellipse cx="0" cy="0" rx="1.67" ry="6" class="primitive"/>
  </g>
</g>
<g fill="#FFA500" id="img-281dc159-35">
  <g transform="translate(45.71,70)">
    <circle cx="0" cy="0" r="5" class="primitive"/>
  </g>
</g>
</svg>
